<svg width="236" height="66" viewBox="0 0 236 66" fill="none" xmlns="http://www.w3.org/2000/svg">
<path d="M14.8926 47.4883C12.8418 47.4883 11.0026 47.1628 9.375 46.5117C7.7474 45.8444 6.36393 44.9248 5.22461 43.7529C4.10156 42.5811 3.23893 41.222 2.63672 39.6758C2.03451 38.1133 1.7334 36.4531 1.7334 34.6953V33.7188C1.7334 31.7168 2.01823 29.8857 2.58789 28.2256C3.15755 26.5654 3.97135 25.125 5.0293 23.9043C6.10352 22.6836 7.4056 21.7477 8.93555 21.0967C10.4655 20.4294 12.1908 20.0957 14.1113 20.0957C15.9831 20.0957 17.6432 20.4049 19.0918 21.0234C20.5404 21.6419 21.7529 22.5208 22.7295 23.6602C23.7223 24.7995 24.471 26.1667 24.9756 27.7617C25.4801 29.3405 25.7324 31.0983 25.7324 33.0352V35.9648H4.73633V31.2773H18.8232V30.7402C18.8232 29.7637 18.6442 28.8929 18.2861 28.1279C17.9443 27.3467 17.4235 26.7282 16.7236 26.2725C16.0238 25.8167 15.1286 25.5889 14.0381 25.5889C13.1104 25.5889 12.3128 25.7923 11.6455 26.1992C10.9782 26.6061 10.4329 27.1758 10.0098 27.9082C9.60286 28.6406 9.29362 29.5033 9.08203 30.4961C8.88672 31.4727 8.78906 32.5469 8.78906 33.7188V34.6953C8.78906 35.7533 8.93555 36.7298 9.22852 37.625C9.53776 38.5202 9.96908 39.2933 10.5225 39.9443C11.0921 40.5954 11.7757 41.0999 12.5732 41.458C13.387 41.8161 14.3066 41.9951 15.332 41.9951C16.6016 41.9951 17.7816 41.751 18.8721 41.2627C19.9788 40.7581 20.931 40.0013 21.7285 38.9922L25.1465 42.7031C24.5931 43.5007 23.8363 44.2656 22.876 44.998C21.932 45.7305 20.7926 46.3327 19.458 46.8047C18.1234 47.2604 16.6016 47.4883 14.8926 47.4883ZM43.9941 41.043V29.2754C43.9941 28.429 43.8558 27.7048 43.5791 27.1025C43.3024 26.484 42.8711 26.0039 42.2852 25.6621C41.7155 25.3203 40.9749 25.1494 40.0635 25.1494C39.2822 25.1494 38.6068 25.2878 38.0371 25.5645C37.4674 25.8249 37.028 26.2074 36.7188 26.7119C36.4095 27.2002 36.2549 27.778 36.2549 28.4453H29.2236C29.2236 27.3223 29.484 26.2562 30.0049 25.2471C30.5257 24.238 31.2826 23.3509 32.2754 22.5859C33.2682 21.8047 34.4482 21.1943 35.8154 20.7549C37.1989 20.3154 38.7451 20.0957 40.4541 20.0957C42.5049 20.0957 44.3278 20.4375 45.9229 21.1211C47.5179 21.8047 48.7712 22.8301 49.6826 24.1973C50.6104 25.5645 51.0742 27.2734 51.0742 29.3242V40.6279C51.0742 42.0765 51.1637 43.2646 51.3428 44.1924C51.5218 45.1038 51.7822 45.9014 52.124 46.585V47H45.0195C44.6777 46.2839 44.4173 45.3887 44.2383 44.3145C44.0755 43.224 43.9941 42.1335 43.9941 41.043ZM44.9219 30.9111L44.9707 34.8906H41.04C40.1123 34.8906 39.3066 34.9964 38.623 35.208C37.9395 35.4196 37.3779 35.7207 36.9385 36.1113C36.499 36.4857 36.1735 36.9251 35.9619 37.4297C35.7666 37.9342 35.6689 38.4876 35.6689 39.0898C35.6689 39.6921 35.8073 40.2373 36.084 40.7256C36.3607 41.1976 36.7594 41.5719 37.2803 41.8486C37.8011 42.109 38.4115 42.2393 39.1113 42.2393C40.1693 42.2393 41.0889 42.0277 41.8701 41.6045C42.6514 41.1813 43.2536 40.6605 43.6768 40.042C44.1162 39.4235 44.3441 38.8376 44.3604 38.2842L46.2158 41.2627C45.9554 41.93 45.5973 42.6217 45.1416 43.3379C44.7021 44.054 44.1406 44.7295 43.457 45.3643C42.7734 45.9827 41.9515 46.4954 40.9912 46.9023C40.0309 47.293 38.8916 47.4883 37.5732 47.4883C35.8968 47.4883 34.375 47.1546 33.0078 46.4873C31.6569 45.8037 30.5827 44.8678 29.7852 43.6797C29.0039 42.4753 28.6133 41.1081 28.6133 39.5781C28.6133 38.1947 28.8737 36.9658 29.3945 35.8916C29.9154 34.8174 30.6803 33.9141 31.6895 33.1816C32.7148 32.4329 33.9925 31.8714 35.5225 31.4971C37.0524 31.1064 38.8265 30.9111 40.8447 30.9111H44.9219ZM70.7764 39.7002C70.7764 39.1956 70.6299 38.7399 70.3369 38.333C70.0439 37.9261 69.4987 37.5518 68.7012 37.21C67.9199 36.8519 66.7887 36.5264 65.3076 36.2334C63.973 35.9404 62.7279 35.5742 61.5723 35.1348C60.4329 34.679 59.4401 34.1338 58.5938 33.499C57.7637 32.8643 57.1126 32.1156 56.6406 31.2529C56.1686 30.374 55.9326 29.373 55.9326 28.25C55.9326 27.1432 56.1686 26.1016 56.6406 25.125C57.1289 24.1484 57.8206 23.2858 58.7158 22.5371C59.6273 21.7721 60.734 21.1781 62.0361 20.7549C63.3545 20.3154 64.8356 20.0957 66.4795 20.0957C68.7744 20.0957 70.7438 20.4619 72.3877 21.1943C74.0479 21.9268 75.3174 22.9359 76.1963 24.2217C77.0915 25.4912 77.5391 26.9398 77.5391 28.5674H70.5078C70.5078 27.8838 70.3613 27.2734 70.0684 26.7363C69.7917 26.1829 69.3522 25.7516 68.75 25.4424C68.1641 25.1169 67.3991 24.9541 66.4551 24.9541C65.6738 24.9541 64.9984 25.0924 64.4287 25.3691C63.859 25.6296 63.4196 25.9876 63.1104 26.4434C62.8174 26.8828 62.6709 27.3711 62.6709 27.9082C62.6709 28.3151 62.7523 28.6813 62.915 29.0068C63.0941 29.3161 63.3789 29.6009 63.7695 29.8613C64.1602 30.1217 64.6647 30.3659 65.2832 30.5938C65.918 30.8053 66.6992 31.0007 67.627 31.1797C69.5312 31.5703 71.2321 32.083 72.7295 32.7178C74.2269 33.3363 75.415 34.1826 76.2939 35.2568C77.1729 36.3148 77.6123 37.7064 77.6123 39.4316C77.6123 40.6035 77.3519 41.6777 76.8311 42.6543C76.3102 43.6309 75.5615 44.4854 74.585 45.2178C73.6084 45.9339 72.4365 46.4954 71.0693 46.9023C69.7184 47.293 68.1966 47.4883 66.5039 47.4883C64.0462 47.4883 61.9629 47.0488 60.2539 46.1699C58.5612 45.291 57.2754 44.1761 56.3965 42.8252C55.5339 41.458 55.1025 40.0583 55.1025 38.626H61.7676C61.8001 39.5863 62.0443 40.3594 62.5 40.9453C62.972 41.5312 63.5661 41.9544 64.2822 42.2148C65.0146 42.4753 65.804 42.6055 66.6504 42.6055C67.5618 42.6055 68.3187 42.4834 68.9209 42.2393C69.5231 41.9788 69.9788 41.637 70.2881 41.2139C70.6136 40.7744 70.7764 40.2699 70.7764 39.7002ZM90.0146 44.0215L97.0215 20.584H104.565L93.9453 50.9795C93.7174 51.6468 93.4082 52.363 93.0176 53.1279C92.6432 53.8929 92.1305 54.6172 91.4795 55.3008C90.8447 56.0007 90.0391 56.5703 89.0625 57.0098C88.1022 57.4492 86.9222 57.6689 85.5225 57.6689C84.8551 57.6689 84.3099 57.6283 83.8867 57.5469C83.4635 57.4655 82.959 57.3516 82.373 57.2051V52.0537C82.5521 52.0537 82.7393 52.0537 82.9346 52.0537C83.1299 52.07 83.3171 52.0781 83.4961 52.0781C84.4238 52.0781 85.1807 51.9723 85.7666 51.7607C86.3525 51.5492 86.8245 51.2236 87.1826 50.7842C87.5407 50.361 87.8255 49.8076 88.0371 49.124L90.0146 44.0215ZM87.085 20.584L92.8223 39.7246L93.8232 47.1709L89.0381 47.6836L79.541 20.584H87.085Z" fill="#6722BC"/>
<path d="M14.8926 47.4883C12.8418 47.4883 11.0026 47.1628 9.375 46.5117C7.7474 45.8444 6.36393 44.9248 5.22461 43.7529C4.10156 42.5811 3.23893 41.222 2.63672 39.6758C2.03451 38.1133 1.7334 36.4531 1.7334 34.6953V33.7188C1.7334 31.7168 2.01823 29.8857 2.58789 28.2256C3.15755 26.5654 3.97135 25.125 5.0293 23.9043C6.10352 22.6836 7.4056 21.7477 8.93555 21.0967C10.4655 20.4294 12.1908 20.0957 14.1113 20.0957C15.9831 20.0957 17.6432 20.4049 19.0918 21.0234C20.5404 21.6419 21.7529 22.5208 22.7295 23.6602C23.7223 24.7995 24.471 26.1667 24.9756 27.7617C25.4801 29.3405 25.7324 31.0983 25.7324 33.0352V35.9648H4.73633V31.2773H18.8232V30.7402C18.8232 29.7637 18.6442 28.8929 18.2861 28.1279C17.9443 27.3467 17.4235 26.7282 16.7236 26.2725C16.0238 25.8167 15.1286 25.5889 14.0381 25.5889C13.1104 25.5889 12.3128 25.7923 11.6455 26.1992C10.9782 26.6061 10.4329 27.1758 10.0098 27.9082C9.60286 28.6406 9.29362 29.5033 9.08203 30.4961C8.88672 31.4727 8.78906 32.5469 8.78906 33.7188V34.6953C8.78906 35.7533 8.93555 36.7298 9.22852 37.625C9.53776 38.5202 9.96908 39.2933 10.5225 39.9443C11.0921 40.5954 11.7757 41.0999 12.5732 41.458C13.387 41.8161 14.3066 41.9951 15.332 41.9951C16.6016 41.9951 17.7816 41.751 18.8721 41.2627C19.9788 40.7581 20.931 40.0013 21.7285 38.9922L25.1465 42.7031C24.5931 43.5007 23.8363 44.2656 22.876 44.998C21.932 45.7305 20.7926 46.3327 19.458 46.8047C18.1234 47.2604 16.6016 47.4883 14.8926 47.4883ZM43.9941 41.043V29.2754C43.9941 28.429 43.8558 27.7048 43.5791 27.1025C43.3024 26.484 42.8711 26.0039 42.2852 25.6621C41.7155 25.3203 40.9749 25.1494 40.0635 25.1494C39.2822 25.1494 38.6068 25.2878 38.0371 25.5645C37.4674 25.8249 37.028 26.2074 36.7188 26.7119C36.4095 27.2002 36.2549 27.778 36.2549 28.4453H29.2236C29.2236 27.3223 29.484 26.2562 30.0049 25.2471C30.5257 24.238 31.2826 23.3509 32.2754 22.5859C33.2682 21.8047 34.4482 21.1943 35.8154 20.7549C37.1989 20.3154 38.7451 20.0957 40.4541 20.0957C42.5049 20.0957 44.3278 20.4375 45.9229 21.1211C47.5179 21.8047 48.7712 22.8301 49.6826 24.1973C50.6104 25.5645 51.0742 27.2734 51.0742 29.3242V40.6279C51.0742 42.0765 51.1637 43.2646 51.3428 44.1924C51.5218 45.1038 51.7822 45.9014 52.124 46.585V47H45.0195C44.6777 46.2839 44.4173 45.3887 44.2383 44.3145C44.0755 43.224 43.9941 42.1335 43.9941 41.043ZM44.9219 30.9111L44.9707 34.8906H41.04C40.1123 34.8906 39.3066 34.9964 38.623 35.208C37.9395 35.4196 37.3779 35.7207 36.9385 36.1113C36.499 36.4857 36.1735 36.9251 35.9619 37.4297C35.7666 37.9342 35.6689 38.4876 35.6689 39.0898C35.6689 39.6921 35.8073 40.2373 36.084 40.7256C36.3607 41.1976 36.7594 41.5719 37.2803 41.8486C37.8011 42.109 38.4115 42.2393 39.1113 42.2393C40.1693 42.2393 41.0889 42.0277 41.8701 41.6045C42.6514 41.1813 43.2536 40.6605 43.6768 40.042C44.1162 39.4235 44.3441 38.8376 44.3604 38.2842L46.2158 41.2627C45.9554 41.93 45.5973 42.6217 45.1416 43.3379C44.7021 44.054 44.1406 44.7295 43.457 45.3643C42.7734 45.9827 41.9515 46.4954 40.9912 46.9023C40.0309 47.293 38.8916 47.4883 37.5732 47.4883C35.8968 47.4883 34.375 47.1546 33.0078 46.4873C31.6569 45.8037 30.5827 44.8678 29.7852 43.6797C29.0039 42.4753 28.6133 41.1081 28.6133 39.5781C28.6133 38.1947 28.8737 36.9658 29.3945 35.8916C29.9154 34.8174 30.6803 33.9141 31.6895 33.1816C32.7148 32.4329 33.9925 31.8714 35.5225 31.4971C37.0524 31.1064 38.8265 30.9111 40.8447 30.9111H44.9219ZM70.7764 39.7002C70.7764 39.1956 70.6299 38.7399 70.3369 38.333C70.0439 37.9261 69.4987 37.5518 68.7012 37.21C67.9199 36.8519 66.7887 36.5264 65.3076 36.2334C63.973 35.9404 62.7279 35.5742 61.5723 35.1348C60.4329 34.679 59.4401 34.1338 58.5938 33.499C57.7637 32.8643 57.1126 32.1156 56.6406 31.2529C56.1686 30.374 55.9326 29.373 55.9326 28.25C55.9326 27.1432 56.1686 26.1016 56.6406 25.125C57.1289 24.1484 57.8206 23.2858 58.7158 22.5371C59.6273 21.7721 60.734 21.1781 62.0361 20.7549C63.3545 20.3154 64.8356 20.0957 66.4795 20.0957C68.7744 20.0957 70.7438 20.4619 72.3877 21.1943C74.0479 21.9268 75.3174 22.9359 76.1963 24.2217C77.0915 25.4912 77.5391 26.9398 77.5391 28.5674H70.5078C70.5078 27.8838 70.3613 27.2734 70.0684 26.7363C69.7917 26.1829 69.3522 25.7516 68.75 25.4424C68.1641 25.1169 67.3991 24.9541 66.4551 24.9541C65.6738 24.9541 64.9984 25.0924 64.4287 25.3691C63.859 25.6296 63.4196 25.9876 63.1104 26.4434C62.8174 26.8828 62.6709 27.3711 62.6709 27.9082C62.6709 28.3151 62.7523 28.6813 62.915 29.0068C63.0941 29.3161 63.3789 29.6009 63.7695 29.8613C64.1602 30.1217 64.6647 30.3659 65.2832 30.5938C65.918 30.8053 66.6992 31.0007 67.627 31.1797C69.5312 31.5703 71.2321 32.083 72.7295 32.7178C74.2269 33.3363 75.415 34.1826 76.2939 35.2568C77.1729 36.3148 77.6123 37.7064 77.6123 39.4316C77.6123 40.6035 77.3519 41.6777 76.8311 42.6543C76.3102 43.6309 75.5615 44.4854 74.585 45.2178C73.6084 45.9339 72.4365 46.4954 71.0693 46.9023C69.7184 47.293 68.1966 47.4883 66.5039 47.4883C64.0462 47.4883 61.9629 47.0488 60.2539 46.1699C58.5612 45.291 57.2754 44.1761 56.3965 42.8252C55.5339 41.458 55.1025 40.0583 55.1025 38.626H61.7676C61.8001 39.5863 62.0443 40.3594 62.5 40.9453C62.972 41.5312 63.5661 41.9544 64.2822 42.2148C65.0146 42.4753 65.804 42.6055 66.6504 42.6055C67.5618 42.6055 68.3187 42.4834 68.9209 42.2393C69.5231 41.9788 69.9788 41.637 70.2881 41.2139C70.6136 40.7744 70.7764 40.2699 70.7764 39.7002ZM90.0146 44.0215L97.0215 20.584H104.565L93.9453 50.9795C93.7174 51.6468 93.4082 52.363 93.0176 53.1279C92.6432 53.8929 92.1305 54.6172 91.4795 55.3008C90.8447 56.0007 90.0391 56.5703 89.0625 57.0098C88.1022 57.4492 86.9222 57.6689 85.5225 57.6689C84.8551 57.6689 84.3099 57.6283 83.8867 57.5469C83.4635 57.4655 82.959 57.3516 82.373 57.2051V52.0537C82.5521 52.0537 82.7393 52.0537 82.9346 52.0537C83.1299 52.07 83.3171 52.0781 83.4961 52.0781C84.4238 52.0781 85.1807 51.9723 85.7666 51.7607C86.3525 51.5492 86.8245 51.2236 87.1826 50.7842C87.5407 50.361 87.8255 49.8076 88.0371 49.124L90.0146 44.0215ZM87.085 20.584L92.8223 39.7246L93.8232 47.1709L89.0381 47.6836L79.541 20.584H87.085Z" fill="black" fill-opacity="0.2"/>
<path d="M14.8926 47.4883C12.8418 47.4883 11.0026 47.1628 9.375 46.5117C7.7474 45.8444 6.36393 44.9248 5.22461 43.7529C4.10156 42.5811 3.23893 41.222 2.63672 39.6758C2.03451 38.1133 1.7334 36.4531 1.7334 34.6953V33.7188C1.7334 31.7168 2.01823 29.8857 2.58789 28.2256C3.15755 26.5654 3.97135 25.125 5.0293 23.9043C6.10352 22.6836 7.4056 21.7477 8.93555 21.0967C10.4655 20.4294 12.1908 20.0957 14.1113 20.0957C15.9831 20.0957 17.6432 20.4049 19.0918 21.0234C20.5404 21.6419 21.7529 22.5208 22.7295 23.6602C23.7223 24.7995 24.471 26.1667 24.9756 27.7617C25.4801 29.3405 25.7324 31.0983 25.7324 33.0352V35.9648H4.73633V31.2773H18.8232V30.7402C18.8232 29.7637 18.6442 28.8929 18.2861 28.1279C17.9443 27.3467 17.4235 26.7282 16.7236 26.2725C16.0238 25.8167 15.1286 25.5889 14.0381 25.5889C13.1104 25.5889 12.3128 25.7923 11.6455 26.1992C10.9782 26.6061 10.4329 27.1758 10.0098 27.9082C9.60286 28.6406 9.29362 29.5033 9.08203 30.4961C8.88672 31.4727 8.78906 32.5469 8.78906 33.7188V34.6953C8.78906 35.7533 8.93555 36.7298 9.22852 37.625C9.53776 38.5202 9.96908 39.2933 10.5225 39.9443C11.0921 40.5954 11.7757 41.0999 12.5732 41.458C13.387 41.8161 14.3066 41.9951 15.332 41.9951C16.6016 41.9951 17.7816 41.751 18.8721 41.2627C19.9788 40.7581 20.931 40.0013 21.7285 38.9922L25.1465 42.7031C24.5931 43.5007 23.8363 44.2656 22.876 44.998C21.932 45.7305 20.7926 46.3327 19.458 46.8047C18.1234 47.2604 16.6016 47.4883 14.8926 47.4883ZM43.9941 41.043V29.2754C43.9941 28.429 43.8558 27.7048 43.5791 27.1025C43.3024 26.484 42.8711 26.0039 42.2852 25.6621C41.7155 25.3203 40.9749 25.1494 40.0635 25.1494C39.2822 25.1494 38.6068 25.2878 38.0371 25.5645C37.4674 25.8249 37.028 26.2074 36.7188 26.7119C36.4095 27.2002 36.2549 27.778 36.2549 28.4453H29.2236C29.2236 27.3223 29.484 26.2562 30.0049 25.2471C30.5257 24.238 31.2826 23.3509 32.2754 22.5859C33.2682 21.8047 34.4482 21.1943 35.8154 20.7549C37.1989 20.3154 38.7451 20.0957 40.4541 20.0957C42.5049 20.0957 44.3278 20.4375 45.9229 21.1211C47.5179 21.8047 48.7712 22.8301 49.6826 24.1973C50.6104 25.5645 51.0742 27.2734 51.0742 29.3242V40.6279C51.0742 42.0765 51.1637 43.2646 51.3428 44.1924C51.5218 45.1038 51.7822 45.9014 52.124 46.585V47H45.0195C44.6777 46.2839 44.4173 45.3887 44.2383 44.3145C44.0755 43.224 43.9941 42.1335 43.9941 41.043ZM44.9219 30.9111L44.9707 34.8906H41.04C40.1123 34.8906 39.3066 34.9964 38.623 35.208C37.9395 35.4196 37.3779 35.7207 36.9385 36.1113C36.499 36.4857 36.1735 36.9251 35.9619 37.4297C35.7666 37.9342 35.6689 38.4876 35.6689 39.0898C35.6689 39.6921 35.8073 40.2373 36.084 40.7256C36.3607 41.1976 36.7594 41.5719 37.2803 41.8486C37.8011 42.109 38.4115 42.2393 39.1113 42.2393C40.1693 42.2393 41.0889 42.0277 41.8701 41.6045C42.6514 41.1813 43.2536 40.6605 43.6768 40.042C44.1162 39.4235 44.3441 38.8376 44.3604 38.2842L46.2158 41.2627C45.9554 41.93 45.5973 42.6217 45.1416 43.3379C44.7021 44.054 44.1406 44.7295 43.457 45.3643C42.7734 45.9827 41.9515 46.4954 40.9912 46.9023C40.0309 47.293 38.8916 47.4883 37.5732 47.4883C35.8968 47.4883 34.375 47.1546 33.0078 46.4873C31.6569 45.8037 30.5827 44.8678 29.7852 43.6797C29.0039 42.4753 28.6133 41.1081 28.6133 39.5781C28.6133 38.1947 28.8737 36.9658 29.3945 35.8916C29.9154 34.8174 30.6803 33.9141 31.6895 33.1816C32.7148 32.4329 33.9925 31.8714 35.5225 31.4971C37.0524 31.1064 38.8265 30.9111 40.8447 30.9111H44.9219ZM70.7764 39.7002C70.7764 39.1956 70.6299 38.7399 70.3369 38.333C70.0439 37.9261 69.4987 37.5518 68.7012 37.21C67.9199 36.8519 66.7887 36.5264 65.3076 36.2334C63.973 35.9404 62.7279 35.5742 61.5723 35.1348C60.4329 34.679 59.4401 34.1338 58.5938 33.499C57.7637 32.8643 57.1126 32.1156 56.6406 31.2529C56.1686 30.374 55.9326 29.373 55.9326 28.25C55.9326 27.1432 56.1686 26.1016 56.6406 25.125C57.1289 24.1484 57.8206 23.2858 58.7158 22.5371C59.6273 21.7721 60.734 21.1781 62.0361 20.7549C63.3545 20.3154 64.8356 20.0957 66.4795 20.0957C68.7744 20.0957 70.7438 20.4619 72.3877 21.1943C74.0479 21.9268 75.3174 22.9359 76.1963 24.2217C77.0915 25.4912 77.5391 26.9398 77.5391 28.5674H70.5078C70.5078 27.8838 70.3613 27.2734 70.0684 26.7363C69.7917 26.1829 69.3522 25.7516 68.75 25.4424C68.1641 25.1169 67.3991 24.9541 66.4551 24.9541C65.6738 24.9541 64.9984 25.0924 64.4287 25.3691C63.859 25.6296 63.4196 25.9876 63.1104 26.4434C62.8174 26.8828 62.6709 27.3711 62.6709 27.9082C62.6709 28.3151 62.7523 28.6813 62.915 29.0068C63.0941 29.3161 63.3789 29.6009 63.7695 29.8613C64.1602 30.1217 64.6647 30.3659 65.2832 30.5938C65.918 30.8053 66.6992 31.0007 67.627 31.1797C69.5312 31.5703 71.2321 32.083 72.7295 32.7178C74.2269 33.3363 75.415 34.1826 76.2939 35.2568C77.1729 36.3148 77.6123 37.7064 77.6123 39.4316C77.6123 40.6035 77.3519 41.6777 76.8311 42.6543C76.3102 43.6309 75.5615 44.4854 74.585 45.2178C73.6084 45.9339 72.4365 46.4954 71.0693 46.9023C69.7184 47.293 68.1966 47.4883 66.5039 47.4883C64.0462 47.4883 61.9629 47.0488 60.2539 46.1699C58.5612 45.291 57.2754 44.1761 56.3965 42.8252C55.5339 41.458 55.1025 40.0583 55.1025 38.626H61.7676C61.8001 39.5863 62.0443 40.3594 62.5 40.9453C62.972 41.5312 63.5661 41.9544 64.2822 42.2148C65.0146 42.4753 65.804 42.6055 66.6504 42.6055C67.5618 42.6055 68.3187 42.4834 68.9209 42.2393C69.5231 41.9788 69.9788 41.637 70.2881 41.2139C70.6136 40.7744 70.7764 40.2699 70.7764 39.7002ZM90.0146 44.0215L97.0215 20.584H104.565L93.9453 50.9795C93.7174 51.6468 93.4082 52.363 93.0176 53.1279C92.6432 53.8929 92.1305 54.6172 91.4795 55.3008C90.8447 56.0007 90.0391 56.5703 89.0625 57.0098C88.1022 57.4492 86.9222 57.6689 85.5225 57.6689C84.8551 57.6689 84.3099 57.6283 83.8867 57.5469C83.4635 57.4655 82.959 57.3516 82.373 57.2051V52.0537C82.5521 52.0537 82.7393 52.0537 82.9346 52.0537C83.1299 52.07 83.3171 52.0781 83.4961 52.0781C84.4238 52.0781 85.1807 51.9723 85.7666 51.7607C86.3525 51.5492 86.8245 51.2236 87.1826 50.7842C87.5407 50.361 87.8255 49.8076 88.0371 49.124L90.0146 44.0215ZM87.085 20.584L92.8223 39.7246L93.8232 47.1709L89.0381 47.6836L79.541 20.584H87.085Z" fill="black" fill-opacity="0.2"/>
<path d="M160.827 20.228C155.819 17.1602 149.693 14.9418 143.157 13.8299C136.622 12.7181 129.946 12.7584 123.904 13.9462C117.861 15.134 112.699 17.4207 109.017 20.541C105.335 23.6613 103.283 27.4875 103.099 31.576C102.915 35.6644 104.607 39.8476 107.978 43.6405C111.349 47.4333 116.262 50.6806 122.146 53.0056C128.031 55.3306 134.646 56.6383 141.225 56.7769C147.804 56.9155 154.077 55.8793 159.317 53.7886L149.111 44.7342C146.384 45.8223 143.119 46.3616 139.694 46.2895C136.27 46.2173 132.827 45.5367 129.765 44.3266C126.702 43.1165 124.145 41.4265 122.39 39.4524C120.636 37.4784 119.755 35.3012 119.851 33.1733C119.947 31.0454 121.015 29.054 122.931 27.43C124.848 25.806 127.534 24.6159 130.679 23.9976C133.824 23.3794 137.299 23.3584 140.7 23.9371C144.101 24.5158 147.29 25.6704 149.897 27.2671L160.827 20.228Z" fill="#6722BC" fill-opacity="0.59"/>
<path d="M167.965 45.043V33.2754C167.965 32.429 167.827 31.7048 167.55 31.1025C167.274 30.484 166.842 30.0039 166.256 29.6621C165.687 29.3203 164.946 29.1494 164.035 29.1494C163.253 29.1494 162.578 29.2878 162.008 29.5645C161.439 29.8249 160.999 30.2074 160.69 30.7119C160.381 31.2002 160.226 31.778 160.226 32.4453H153.195C153.195 31.3223 153.455 30.2562 153.976 29.2471C154.497 28.238 155.254 27.3509 156.247 26.5859C157.239 25.8047 158.419 25.1943 159.787 24.7549C161.17 24.3154 162.716 24.0957 164.425 24.0957C166.476 24.0957 168.299 24.4375 169.894 25.1211C171.489 25.8047 172.742 26.8301 173.654 28.1973C174.582 29.5645 175.045 31.2734 175.045 33.3242V44.6279C175.045 46.0765 175.135 47.2646 175.314 48.1924C175.493 49.1038 175.753 49.9014 176.095 50.585V51H168.991C168.649 50.2839 168.389 49.3887 168.209 48.3145C168.047 47.224 167.965 46.1335 167.965 45.043ZM168.893 34.9111L168.942 38.8906H165.011C164.083 38.8906 163.278 38.9964 162.594 39.208C161.911 39.4196 161.349 39.7207 160.91 40.1113C160.47 40.4857 160.145 40.9251 159.933 41.4297C159.738 41.9342 159.64 42.4876 159.64 43.0898C159.64 43.6921 159.778 44.2373 160.055 44.7256C160.332 45.1976 160.731 45.5719 161.251 45.8486C161.772 46.109 162.383 46.2393 163.083 46.2393C164.14 46.2393 165.06 46.0277 165.841 45.6045C166.623 45.1813 167.225 44.6605 167.648 44.042C168.087 43.4235 168.315 42.8376 168.332 42.2842L170.187 45.2627C169.927 45.93 169.569 46.6217 169.113 47.3379C168.673 48.054 168.112 48.7295 167.428 49.3643C166.745 49.9827 165.923 50.4954 164.962 50.9023C164.002 51.293 162.863 51.4883 161.544 51.4883C159.868 51.4883 158.346 51.1546 156.979 50.4873C155.628 49.8037 154.554 48.8678 153.756 47.6797C152.975 46.4753 152.584 45.1081 152.584 43.5781C152.584 42.1947 152.845 40.9658 153.366 39.8916C153.887 38.8174 154.652 37.9141 155.661 37.1816C156.686 36.4329 157.964 35.8714 159.494 35.4971C161.024 35.1064 162.798 34.9111 164.816 34.9111H168.893ZM194.748 43.7002C194.748 43.1956 194.601 42.7399 194.308 42.333C194.015 41.9261 193.47 41.5518 192.672 41.21C191.891 40.8519 190.76 40.5264 189.279 40.2334C187.944 39.9404 186.699 39.5742 185.543 39.1348C184.404 38.679 183.411 38.1338 182.565 37.499C181.735 36.8643 181.084 36.1156 180.612 35.2529C180.14 34.374 179.904 33.373 179.904 32.25C179.904 31.1432 180.14 30.1016 180.612 29.125C181.1 28.1484 181.792 27.2858 182.687 26.5371C183.598 25.7721 184.705 25.1781 186.007 24.7549C187.326 24.3154 188.807 24.0957 190.451 24.0957C192.746 24.0957 194.715 24.4619 196.359 25.1943C198.019 25.9268 199.289 26.9359 200.167 28.2217C201.063 29.4912 201.51 30.9398 201.51 32.5674H194.479C194.479 31.8838 194.333 31.2734 194.04 30.7363C193.763 30.1829 193.323 29.7516 192.721 29.4424C192.135 29.1169 191.37 28.9541 190.426 28.9541C189.645 28.9541 188.97 29.0924 188.4 29.3691C187.83 29.6296 187.391 29.9876 187.082 30.4434C186.789 30.8828 186.642 31.3711 186.642 31.9082C186.642 32.3151 186.723 32.6813 186.886 33.0068C187.065 33.3161 187.35 33.6009 187.741 33.8613C188.131 34.1217 188.636 34.3659 189.254 34.5938C189.889 34.8053 190.67 35.0007 191.598 35.1797C193.502 35.5703 195.203 36.083 196.701 36.7178C198.198 37.3363 199.386 38.1826 200.265 39.2568C201.144 40.3148 201.583 41.7064 201.583 43.4316C201.583 44.6035 201.323 45.6777 200.802 46.6543C200.281 47.6309 199.533 48.4854 198.556 49.2178C197.58 49.9339 196.408 50.4954 195.041 50.9023C193.69 51.293 192.168 51.4883 190.475 51.4883C188.017 51.4883 185.934 51.0488 184.225 50.1699C182.532 49.291 181.247 48.1761 180.368 46.8252C179.505 45.458 179.074 44.0583 179.074 42.626H185.739C185.771 43.5863 186.015 44.3594 186.471 44.9453C186.943 45.5312 187.537 45.9544 188.253 46.2148C188.986 46.4753 189.775 46.6055 190.622 46.6055C191.533 46.6055 192.29 46.4834 192.892 46.2393C193.494 45.9788 193.95 45.637 194.259 45.2139C194.585 44.7744 194.748 44.2699 194.748 43.7002ZM213.009 13.5V51H205.978V13.5H213.009ZM212.008 36.8643H210.08C210.096 35.0251 210.34 33.3324 210.812 31.7861C211.284 30.2236 211.959 28.8727 212.838 27.7334C213.717 26.5778 214.767 25.6826 215.988 25.0479C217.225 24.4131 218.592 24.0957 220.089 24.0957C221.391 24.0957 222.571 24.2829 223.629 24.6572C224.704 25.0153 225.623 25.6012 226.388 26.415C227.169 27.2126 227.772 28.2624 228.195 29.5645C228.618 30.8665 228.83 32.4453 228.83 34.3008V51H221.75V34.252C221.75 33.0801 221.579 32.1605 221.237 31.4932C220.911 30.8096 220.431 30.3294 219.796 30.0527C219.178 29.7598 218.413 29.6133 217.501 29.6133C216.492 29.6133 215.63 29.8005 214.914 30.1748C214.214 30.5492 213.652 31.07 213.229 31.7373C212.806 32.3883 212.497 33.1533 212.301 34.0322C212.106 34.9111 212.008 35.8551 212.008 36.8643Z" fill="#6722BC" fill-opacity="0.9"/>
</svg>
